<svg xmlns="http://www.w3.org/2000/svg" viewBox="0 0 64 64" role="img" aria-labelledby="title">
  <title id="title">Trace ink mark</title>
  <style>
    .paper { fill: #f5efe6; }
    .ink { fill: #302219; stroke: #302219; }
    @media (prefers-color-scheme: dark) {
      .paper { fill: #1c1917; }
      .ink { fill: #faf8f5; stroke: #faf8f5; }
    }
  </style>
  <rect class="paper" width="64" height="64" rx="15"/>
  <path class="ink" fill="none" stroke-width="4.2" stroke-linecap="round" d="M48.5 18.5c-4.3-5.1-11-7.5-17.7-6.2-8.6 1.6-15.1 8.8-15.8 17.5-.8 9.9 5.7 18.8 15.3 21 8.6 2 17.4-2.3 21.2-10.2"/>
  <path class="ink" d="M21 22.2c0-1.4 1.1-2.5 2.5-2.5h20c1.4 0 2.5 1.1 2.5 2.5s-1.1 2.5-2.5 2.5h-7.1v18.8c0 1.5-1.2 2.7-2.7 2.7S31 45 31 43.5V24.7h-7.5A2.5 2.5 0 0 1 21 22.2Z"/>
  <circle class="ink" cx="51.5" cy="34" r="2.1" stroke="none" opacity=".62"/>
</svg>
